<mxfile host="app.diagrams.net" modified="2021-06-15T12:15:27.219Z" agent="5.0 (Windows NT 10.0; Win64; x64) AppleWebKit/537.36 (KHTML, like Gecko) Chrome/90.0.4430.72 Safari/537.36" etag="AcufIdcsZ2LMJQQXxDdc" version="14.7.6" type="github">
  <diagram id="UujlnHGYHNVCAIM1GUkF" name="第 1 页">
    <mxGraphModel dx="1185" dy="635" grid="1" gridSize="10" guides="1" tooltips="1" connect="1" arrows="1" fold="1" page="1" pageScale="1" pageWidth="1169" pageHeight="827" math="0" shadow="0">
      <root>
        <mxCell id="0" />
        <mxCell id="1" parent="0" />
        <mxCell id="r0mZw5IqI9Jmc-1Zj064-1" value="op1p" style="edgeStyle=orthogonalEdgeStyle;curved=1;rounded=0;orthogonalLoop=1;jettySize=auto;html=1;fontColor=#000000;" edge="1" parent="1" source="r0mZw5IqI9Jmc-1Zj064-2" target="r0mZw5IqI9Jmc-1Zj064-3">
          <mxGeometry x="0.324" y="20" relative="1" as="geometry">
            <mxPoint as="offset" />
          </mxGeometry>
        </mxCell>
        <mxCell id="r0mZw5IqI9Jmc-1Zj064-2" value="AstNetList* rootp&lt;br&gt;Root of entire netlist" style="rounded=1;whiteSpace=wrap;html=1;" vertex="1" parent="1">
          <mxGeometry x="1550" y="440" width="120" height="40" as="geometry" />
        </mxCell>
        <mxCell id="r0mZw5IqI9Jmc-1Zj064-3" value="AstNodeModule* modulep&lt;br&gt;List of modules" style="rounded=1;whiteSpace=wrap;html=1;" vertex="1" parent="1">
          <mxGeometry x="1290" y="561.46" width="150" height="40" as="geometry" />
        </mxCell>
        <mxCell id="r0mZw5IqI9Jmc-1Zj064-4" value="op2p" style="edgeStyle=orthogonalEdgeStyle;curved=1;rounded=0;orthogonalLoop=1;jettySize=auto;html=1;fontColor=#000000;exitX=0.25;exitY=1;exitDx=0;exitDy=0;" edge="1" parent="1" source="r0mZw5IqI9Jmc-1Zj064-2" target="r0mZw5IqI9Jmc-1Zj064-5">
          <mxGeometry relative="1" as="geometry">
            <mxPoint x="1509" y="470" as="sourcePoint" />
            <mxPoint x="1509" y="560" as="targetPoint" />
          </mxGeometry>
        </mxCell>
        <mxCell id="r0mZw5IqI9Jmc-1Zj064-5" value="AstNodeFile* filesp&lt;br&gt;List of files" style="rounded=1;whiteSpace=wrap;html=1;" vertex="1" parent="1">
          <mxGeometry x="1771" y="561.46" width="110" height="40" as="geometry" />
        </mxCell>
        <mxCell id="r0mZw5IqI9Jmc-1Zj064-6" value="AstNode* miscp&lt;br&gt;List of dtypes etc" style="rounded=1;whiteSpace=wrap;html=1;" vertex="1" parent="1">
          <mxGeometry x="1990" y="561.46" width="100" height="40" as="geometry" />
        </mxCell>
        <mxCell id="r0mZw5IqI9Jmc-1Zj064-7" value="op3p" style="edgeStyle=orthogonalEdgeStyle;curved=1;rounded=0;orthogonalLoop=1;jettySize=auto;html=1;fontColor=#000000;exitX=0.75;exitY=1;exitDx=0;exitDy=0;entryX=0.5;entryY=0;entryDx=0;entryDy=0;" edge="1" parent="1" source="r0mZw5IqI9Jmc-1Zj064-2" target="r0mZw5IqI9Jmc-1Zj064-6">
          <mxGeometry relative="1" as="geometry">
            <mxPoint x="1534" y="490" as="sourcePoint" />
            <mxPoint x="1519" y="570" as="targetPoint" />
          </mxGeometry>
        </mxCell>
        <mxCell id="r0mZw5IqI9Jmc-1Zj064-8" style="edgeStyle=orthogonalEdgeStyle;rounded=0;orthogonalLoop=1;jettySize=auto;html=1;exitX=1;exitY=0.5;exitDx=0;exitDy=0;entryX=0;entryY=0.5;entryDx=0;entryDy=0;" edge="1" parent="1" source="r0mZw5IqI9Jmc-1Zj064-9" target="r0mZw5IqI9Jmc-1Zj064-18">
          <mxGeometry relative="1" as="geometry" />
        </mxCell>
        <mxCell id="r0mZw5IqI9Jmc-1Zj064-9" value="PORT" style="rounded=1;whiteSpace=wrap;html=1;" vertex="1" parent="1">
          <mxGeometry x="840" y="810" width="60" height="40" as="geometry" />
        </mxCell>
        <mxCell id="r0mZw5IqI9Jmc-1Zj064-10" value="op2p" style="edgeStyle=orthogonalEdgeStyle;curved=1;rounded=0;orthogonalLoop=1;jettySize=auto;html=1;fontColor=#000000;exitX=0.25;exitY=1;exitDx=0;exitDy=0;entryX=0.5;entryY=0;entryDx=0;entryDy=0;" edge="1" parent="1" source="r0mZw5IqI9Jmc-1Zj064-3" target="r0mZw5IqI9Jmc-1Zj064-9">
          <mxGeometry relative="1" as="geometry">
            <mxPoint x="1480" y="470" as="sourcePoint" />
            <mxPoint x="1370.034482758621" y="571.46" as="targetPoint" />
          </mxGeometry>
        </mxCell>
        <mxCell id="r0mZw5IqI9Jmc-1Zj064-11" value="AstActive* activesp&lt;br&gt;List of i/sblocks" style="rounded=1;whiteSpace=wrap;html=1;" vertex="1" parent="1">
          <mxGeometry x="1570" y="680" width="110" height="40" as="geometry" />
        </mxCell>
        <mxCell id="r0mZw5IqI9Jmc-1Zj064-12" value="op3p" style="edgeStyle=orthogonalEdgeStyle;curved=1;rounded=0;orthogonalLoop=1;jettySize=auto;html=1;fontColor=#000000;exitX=0.75;exitY=1;exitDx=0;exitDy=0;entryX=0.5;entryY=0;entryDx=0;entryDy=0;" edge="1" parent="1" source="r0mZw5IqI9Jmc-1Zj064-3" target="r0mZw5IqI9Jmc-1Zj064-11">
          <mxGeometry relative="1" as="geometry">
            <mxPoint x="1345" y="611.46" as="sourcePoint" />
            <mxPoint x="1310" y="690" as="targetPoint" />
          </mxGeometry>
        </mxCell>
        <mxCell id="r0mZw5IqI9Jmc-1Zj064-13" value="inline?" style="rounded=1;whiteSpace=wrap;html=1;" vertex="1" parent="1">
          <mxGeometry x="820" y="650" width="100" height="40" as="geometry" />
        </mxCell>
        <mxCell id="r0mZw5IqI9Jmc-1Zj064-14" value="op1p" style="edgeStyle=orthogonalEdgeStyle;curved=1;rounded=0;orthogonalLoop=1;jettySize=auto;html=1;fontColor=#000000;exitX=0;exitY=0.5;exitDx=0;exitDy=0;entryX=0.5;entryY=0;entryDx=0;entryDy=0;" edge="1" parent="1" source="r0mZw5IqI9Jmc-1Zj064-3" target="r0mZw5IqI9Jmc-1Zj064-13">
          <mxGeometry x="-0.1244" y="28" relative="1" as="geometry">
            <mxPoint x="1337.5" y="611.46" as="sourcePoint" />
            <mxPoint x="1310" y="690" as="targetPoint" />
            <mxPoint as="offset" />
          </mxGeometry>
        </mxCell>
        <mxCell id="r0mZw5IqI9Jmc-1Zj064-15" value="AstTextBlock* tblock" style="rounded=1;whiteSpace=wrap;html=1;" vertex="1" parent="1">
          <mxGeometry x="1740" y="680" width="111" height="40" as="geometry" />
        </mxCell>
        <mxCell id="r0mZw5IqI9Jmc-1Zj064-16" value="op1p" style="edgeStyle=orthogonalEdgeStyle;curved=1;rounded=0;orthogonalLoop=1;jettySize=auto;html=1;fontColor=#000000;exitX=0.25;exitY=1;exitDx=0;exitDy=0;entryX=0.5;entryY=0;entryDx=0;entryDy=0;" edge="1" parent="1" source="r0mZw5IqI9Jmc-1Zj064-5" target="r0mZw5IqI9Jmc-1Zj064-15">
          <mxGeometry relative="1" as="geometry">
            <mxPoint x="1541" y="591.46" as="sourcePoint" />
            <mxPoint x="1431" y="690" as="targetPoint" />
          </mxGeometry>
        </mxCell>
        <mxCell id="r0mZw5IqI9Jmc-1Zj064-17" style="edgeStyle=orthogonalEdgeStyle;rounded=0;orthogonalLoop=1;jettySize=auto;html=1;exitX=1;exitY=0.5;exitDx=0;exitDy=0;entryX=0;entryY=0.5;entryDx=0;entryDy=0;" edge="1" parent="1" source="r0mZw5IqI9Jmc-1Zj064-18" target="r0mZw5IqI9Jmc-1Zj064-20">
          <mxGeometry relative="1" as="geometry" />
        </mxCell>
        <mxCell id="r0mZw5IqI9Jmc-1Zj064-18" value="PORT" style="rounded=1;whiteSpace=wrap;html=1;" vertex="1" parent="1">
          <mxGeometry x="920" y="810" width="60" height="40" as="geometry" />
        </mxCell>
        <mxCell id="r0mZw5IqI9Jmc-1Zj064-19" style="edgeStyle=orthogonalEdgeStyle;rounded=0;orthogonalLoop=1;jettySize=auto;html=1;exitX=1;exitY=0.5;exitDx=0;exitDy=0;entryX=0;entryY=0.5;entryDx=0;entryDy=0;curved=1;" edge="1" parent="1" source="r0mZw5IqI9Jmc-1Zj064-20" target="r0mZw5IqI9Jmc-1Zj064-23">
          <mxGeometry relative="1" as="geometry" />
        </mxCell>
        <mxCell id="r0mZw5IqI9Jmc-1Zj064-20" value="PORT" style="rounded=1;whiteSpace=wrap;html=1;" vertex="1" parent="1">
          <mxGeometry x="1000" y="810" width="60" height="40" as="geometry" />
        </mxCell>
        <mxCell id="r0mZw5IqI9Jmc-1Zj064-21" style="edgeStyle=orthogonalEdgeStyle;rounded=0;orthogonalLoop=1;jettySize=auto;html=1;exitX=1;exitY=0.5;exitDx=0;exitDy=0;entryX=0;entryY=0.5;entryDx=0;entryDy=0;" edge="1" parent="1" source="r0mZw5IqI9Jmc-1Zj064-23" target="r0mZw5IqI9Jmc-1Zj064-25">
          <mxGeometry relative="1" as="geometry" />
        </mxCell>
        <mxCell id="r0mZw5IqI9Jmc-1Zj064-22" value="op1p" style="edgeStyle=orthogonalEdgeStyle;rounded=0;orthogonalLoop=1;jettySize=auto;html=1;exitX=0.25;exitY=1;exitDx=0;exitDy=0;curved=1;" edge="1" parent="1" source="r0mZw5IqI9Jmc-1Zj064-23" target="r0mZw5IqI9Jmc-1Zj064-28">
          <mxGeometry relative="1" as="geometry" />
        </mxCell>
        <mxCell id="r0mZw5IqI9Jmc-1Zj064-23" value="VAR" style="rounded=1;whiteSpace=wrap;html=1;" vertex="1" parent="1">
          <mxGeometry x="1080" y="810" width="60" height="40" as="geometry" />
        </mxCell>
        <mxCell id="r0mZw5IqI9Jmc-1Zj064-24" style="edgeStyle=orthogonalEdgeStyle;rounded=0;orthogonalLoop=1;jettySize=auto;html=1;exitX=1;exitY=0.5;exitDx=0;exitDy=0;entryX=0;entryY=0.5;entryDx=0;entryDy=0;" edge="1" parent="1" source="r0mZw5IqI9Jmc-1Zj064-25" target="r0mZw5IqI9Jmc-1Zj064-27">
          <mxGeometry relative="1" as="geometry" />
        </mxCell>
        <mxCell id="r0mZw5IqI9Jmc-1Zj064-25" value="VAR" style="rounded=1;whiteSpace=wrap;html=1;" vertex="1" parent="1">
          <mxGeometry x="1160" y="810" width="60" height="40" as="geometry" />
        </mxCell>
        <mxCell id="r0mZw5IqI9Jmc-1Zj064-26" style="edgeStyle=orthogonalEdgeStyle;curved=1;rounded=0;orthogonalLoop=1;jettySize=auto;html=1;exitX=1;exitY=0.5;exitDx=0;exitDy=0;entryX=0;entryY=0.5;entryDx=0;entryDy=0;fontSize=12;" edge="1" parent="1" source="r0mZw5IqI9Jmc-1Zj064-27" target="r0mZw5IqI9Jmc-1Zj064-40">
          <mxGeometry relative="1" as="geometry" />
        </mxCell>
        <mxCell id="r0mZw5IqI9Jmc-1Zj064-27" value="VAR" style="rounded=1;whiteSpace=wrap;html=1;" vertex="1" parent="1">
          <mxGeometry x="1240" y="810" width="60" height="40" as="geometry" />
        </mxCell>
        <mxCell id="r0mZw5IqI9Jmc-1Zj064-28" value="&lt;font style=&quot;font-size: 12px;&quot;&gt;BASICDTYPE&lt;/font&gt;" style="rounded=1;whiteSpace=wrap;html=1;fontSize=12;" vertex="1" parent="1">
          <mxGeometry x="990" y="920" width="60" height="40" as="geometry" />
        </mxCell>
        <mxCell id="r0mZw5IqI9Jmc-1Zj064-29" value="BASICDTYPE" style="rounded=1;whiteSpace=wrap;html=1;" vertex="1" parent="1">
          <mxGeometry x="1110" y="920" width="60" height="40" as="geometry" />
        </mxCell>
        <mxCell id="r0mZw5IqI9Jmc-1Zj064-30" value="BASICDTYPE" style="rounded=1;whiteSpace=wrap;html=1;" vertex="1" parent="1">
          <mxGeometry x="1200" y="920" width="60" height="40" as="geometry" />
        </mxCell>
        <mxCell id="r0mZw5IqI9Jmc-1Zj064-31" value="op1p" style="edgeStyle=orthogonalEdgeStyle;rounded=0;orthogonalLoop=1;jettySize=auto;html=1;exitX=0.25;exitY=1;exitDx=0;exitDy=0;curved=1;entryX=0.5;entryY=0;entryDx=0;entryDy=0;" edge="1" parent="1" source="r0mZw5IqI9Jmc-1Zj064-25" target="r0mZw5IqI9Jmc-1Zj064-29">
          <mxGeometry relative="1" as="geometry">
            <mxPoint x="1105" y="860" as="sourcePoint" />
            <mxPoint x="1030" y="930" as="targetPoint" />
          </mxGeometry>
        </mxCell>
        <mxCell id="r0mZw5IqI9Jmc-1Zj064-32" value="op1p" style="edgeStyle=orthogonalEdgeStyle;rounded=0;orthogonalLoop=1;jettySize=auto;html=1;exitX=0.15;exitY=1;exitDx=0;exitDy=0;curved=1;entryX=0.5;entryY=0;entryDx=0;entryDy=0;exitPerimeter=0;" edge="1" parent="1" source="r0mZw5IqI9Jmc-1Zj064-27" target="r0mZw5IqI9Jmc-1Zj064-30">
          <mxGeometry relative="1" as="geometry">
            <mxPoint x="1185" y="860" as="sourcePoint" />
            <mxPoint x="1135" y="930" as="targetPoint" />
          </mxGeometry>
        </mxCell>
        <mxCell id="r0mZw5IqI9Jmc-1Zj064-33" value="&lt;font style=&quot;font-size: 12px&quot;&gt;RANGE&lt;/font&gt;" style="rounded=1;whiteSpace=wrap;html=1;fontSize=12;" vertex="1" parent="1">
          <mxGeometry x="1080" y="1040" width="60" height="40" as="geometry" />
        </mxCell>
        <mxCell id="r0mZw5IqI9Jmc-1Zj064-34" value="op1p" style="edgeStyle=orthogonalEdgeStyle;rounded=0;orthogonalLoop=1;jettySize=auto;html=1;exitX=0.25;exitY=1;exitDx=0;exitDy=0;curved=1;entryX=0.5;entryY=0;entryDx=0;entryDy=0;" edge="1" parent="1" source="r0mZw5IqI9Jmc-1Zj064-29" target="r0mZw5IqI9Jmc-1Zj064-33">
          <mxGeometry relative="1" as="geometry">
            <mxPoint x="1185" y="860" as="sourcePoint" />
            <mxPoint x="1135" y="930" as="targetPoint" />
          </mxGeometry>
        </mxCell>
        <mxCell id="r0mZw5IqI9Jmc-1Zj064-35" value="&lt;font style=&quot;font-size: 12px&quot;&gt;CONST&lt;/font&gt;" style="rounded=1;whiteSpace=wrap;html=1;fontSize=12;" vertex="1" parent="1">
          <mxGeometry x="1020" y="1160" width="60" height="40" as="geometry" />
        </mxCell>
        <mxCell id="r0mZw5IqI9Jmc-1Zj064-36" value="op2p" style="edgeStyle=orthogonalEdgeStyle;rounded=0;orthogonalLoop=1;jettySize=auto;html=1;curved=1;exitX=0.25;exitY=1;exitDx=0;exitDy=0;entryX=0.5;entryY=0;entryDx=0;entryDy=0;" edge="1" parent="1" source="r0mZw5IqI9Jmc-1Zj064-33" target="r0mZw5IqI9Jmc-1Zj064-35">
          <mxGeometry relative="1" as="geometry">
            <mxPoint x="1020" y="1140" as="sourcePoint" />
            <mxPoint x="1190" y="1220" as="targetPoint" />
          </mxGeometry>
        </mxCell>
        <mxCell id="r0mZw5IqI9Jmc-1Zj064-37" value="&lt;font style=&quot;font-size: 12px&quot;&gt;CONST&lt;/font&gt;" style="rounded=1;whiteSpace=wrap;html=1;fontSize=12;" vertex="1" parent="1">
          <mxGeometry x="1120" y="1160" width="60" height="40" as="geometry" />
        </mxCell>
        <mxCell id="r0mZw5IqI9Jmc-1Zj064-38" value="op3p" style="edgeStyle=orthogonalEdgeStyle;rounded=0;orthogonalLoop=1;jettySize=auto;html=1;curved=1;exitX=0.75;exitY=1;exitDx=0;exitDy=0;entryX=0.5;entryY=0;entryDx=0;entryDy=0;" edge="1" parent="1" source="r0mZw5IqI9Jmc-1Zj064-33" target="r0mZw5IqI9Jmc-1Zj064-37">
          <mxGeometry relative="1" as="geometry">
            <mxPoint x="1105" y="1090" as="sourcePoint" />
            <mxPoint x="1045" y="1170" as="targetPoint" />
          </mxGeometry>
        </mxCell>
        <mxCell id="r0mZw5IqI9Jmc-1Zj064-39" style="edgeStyle=orthogonalEdgeStyle;curved=1;rounded=0;orthogonalLoop=1;jettySize=auto;html=1;exitX=1;exitY=0.5;exitDx=0;exitDy=0;entryX=0;entryY=0.5;entryDx=0;entryDy=0;fontSize=12;" edge="1" parent="1" source="r0mZw5IqI9Jmc-1Zj064-40" target="r0mZw5IqI9Jmc-1Zj064-46">
          <mxGeometry relative="1" as="geometry" />
        </mxCell>
        <mxCell id="r0mZw5IqI9Jmc-1Zj064-40" value="CELL&lt;br&gt;模块调用" style="rounded=1;whiteSpace=wrap;html=1;" vertex="1" parent="1">
          <mxGeometry x="1320" y="810" width="60" height="40" as="geometry" />
        </mxCell>
        <mxCell id="r0mZw5IqI9Jmc-1Zj064-41" value="PIN" style="rounded=1;whiteSpace=wrap;html=1;" vertex="1" parent="1">
          <mxGeometry x="1290" y="920" width="60" height="40" as="geometry" />
        </mxCell>
        <mxCell id="r0mZw5IqI9Jmc-1Zj064-42" value="op1p" style="edgeStyle=orthogonalEdgeStyle;rounded=0;orthogonalLoop=1;jettySize=auto;html=1;exitX=0.25;exitY=1;exitDx=0;exitDy=0;curved=1;entryX=0.5;entryY=0;entryDx=0;entryDy=0;" edge="1" parent="1" source="r0mZw5IqI9Jmc-1Zj064-40" target="r0mZw5IqI9Jmc-1Zj064-41">
          <mxGeometry relative="1" as="geometry">
            <mxPoint x="1259" y="860" as="sourcePoint" />
            <mxPoint x="1240" y="930" as="targetPoint" />
          </mxGeometry>
        </mxCell>
        <mxCell id="r0mZw5IqI9Jmc-1Zj064-43" value="PARSEREF" style="rounded=1;whiteSpace=wrap;html=1;" vertex="1" parent="1">
          <mxGeometry x="1280" y="1040" width="60" height="40" as="geometry" />
        </mxCell>
        <mxCell id="r0mZw5IqI9Jmc-1Zj064-44" value="op1p" style="edgeStyle=orthogonalEdgeStyle;rounded=0;orthogonalLoop=1;jettySize=auto;html=1;exitX=0.25;exitY=1;exitDx=0;exitDy=0;curved=1;entryX=0.5;entryY=0;entryDx=0;entryDy=0;" edge="1" parent="1" source="r0mZw5IqI9Jmc-1Zj064-41" target="r0mZw5IqI9Jmc-1Zj064-43">
          <mxGeometry relative="1" as="geometry">
            <mxPoint x="1135" y="970" as="sourcePoint" />
            <mxPoint x="1120" y="1050" as="targetPoint" />
          </mxGeometry>
        </mxCell>
        <mxCell id="r0mZw5IqI9Jmc-1Zj064-45" style="edgeStyle=orthogonalEdgeStyle;curved=1;rounded=0;orthogonalLoop=1;jettySize=auto;html=1;exitX=1;exitY=0.5;exitDx=0;exitDy=0;entryX=0;entryY=0.5;entryDx=0;entryDy=0;fontSize=12;" edge="1" parent="1" source="r0mZw5IqI9Jmc-1Zj064-46" target="r0mZw5IqI9Jmc-1Zj064-51">
          <mxGeometry relative="1" as="geometry" />
        </mxCell>
        <mxCell id="r0mZw5IqI9Jmc-1Zj064-46" value="CELL" style="rounded=1;whiteSpace=wrap;html=1;" vertex="1" parent="1">
          <mxGeometry x="1400" y="810" width="60" height="40" as="geometry" />
        </mxCell>
        <mxCell id="r0mZw5IqI9Jmc-1Zj064-47" value="PIN" style="rounded=1;whiteSpace=wrap;html=1;" vertex="1" parent="1">
          <mxGeometry x="1370" y="920" width="60" height="40" as="geometry" />
        </mxCell>
        <mxCell id="r0mZw5IqI9Jmc-1Zj064-48" value="PARSEREF" style="rounded=1;whiteSpace=wrap;html=1;" vertex="1" parent="1">
          <mxGeometry x="1360" y="1040" width="60" height="40" as="geometry" />
        </mxCell>
        <mxCell id="r0mZw5IqI9Jmc-1Zj064-49" value="op1p" style="edgeStyle=orthogonalEdgeStyle;rounded=0;orthogonalLoop=1;jettySize=auto;html=1;exitX=0.25;exitY=1;exitDx=0;exitDy=0;curved=1;entryX=0.5;entryY=0;entryDx=0;entryDy=0;" edge="1" parent="1" source="r0mZw5IqI9Jmc-1Zj064-46" target="r0mZw5IqI9Jmc-1Zj064-47">
          <mxGeometry relative="1" as="geometry">
            <mxPoint x="1345" y="860" as="sourcePoint" />
            <mxPoint x="1330" y="930" as="targetPoint" />
          </mxGeometry>
        </mxCell>
        <mxCell id="r0mZw5IqI9Jmc-1Zj064-50" value="op1p" style="edgeStyle=orthogonalEdgeStyle;rounded=0;orthogonalLoop=1;jettySize=auto;html=1;exitX=0.25;exitY=1;exitDx=0;exitDy=0;curved=1;" edge="1" parent="1" source="r0mZw5IqI9Jmc-1Zj064-47" target="r0mZw5IqI9Jmc-1Zj064-48">
          <mxGeometry relative="1" as="geometry">
            <mxPoint x="1355" y="870" as="sourcePoint" />
            <mxPoint x="1340" y="940" as="targetPoint" />
          </mxGeometry>
        </mxCell>
        <mxCell id="r0mZw5IqI9Jmc-1Zj064-85" style="edgeStyle=orthogonalEdgeStyle;rounded=0;orthogonalLoop=1;jettySize=auto;html=1;entryX=0;entryY=0.5;entryDx=0;entryDy=0;" edge="1" parent="1" source="r0mZw5IqI9Jmc-1Zj064-51" target="r0mZw5IqI9Jmc-1Zj064-68">
          <mxGeometry relative="1" as="geometry" />
        </mxCell>
        <mxCell id="r0mZw5IqI9Jmc-1Zj064-51" value="ALWAYS" style="rounded=1;whiteSpace=wrap;html=1;" vertex="1" parent="1">
          <mxGeometry x="1580" y="810" width="60" height="40" as="geometry" />
        </mxCell>
        <mxCell id="r0mZw5IqI9Jmc-1Zj064-52" value="TIMINGCONTROL" style="rounded=1;whiteSpace=wrap;html=1;" vertex="1" parent="1">
          <mxGeometry x="1539" y="920" width="60" height="40" as="geometry" />
        </mxCell>
        <mxCell id="r0mZw5IqI9Jmc-1Zj064-53" value="op2p" style="edgeStyle=orthogonalEdgeStyle;rounded=0;orthogonalLoop=1;jettySize=auto;html=1;exitX=0.25;exitY=1;exitDx=0;exitDy=0;curved=1;entryX=0.5;entryY=0;entryDx=0;entryDy=0;" edge="1" parent="1" source="r0mZw5IqI9Jmc-1Zj064-51" target="r0mZw5IqI9Jmc-1Zj064-52">
          <mxGeometry relative="1" as="geometry">
            <mxPoint x="1425" y="860" as="sourcePoint" />
            <mxPoint x="1410" y="930" as="targetPoint" />
          </mxGeometry>
        </mxCell>
        <mxCell id="r0mZw5IqI9Jmc-1Zj064-54" value="SENTREE" style="rounded=1;whiteSpace=wrap;html=1;" vertex="1" parent="1">
          <mxGeometry x="1479" y="1040" width="60" height="40" as="geometry" />
        </mxCell>
        <mxCell id="r0mZw5IqI9Jmc-1Zj064-55" value="op1p" style="edgeStyle=orthogonalEdgeStyle;rounded=0;orthogonalLoop=1;jettySize=auto;html=1;exitX=0.25;exitY=1;exitDx=0;exitDy=0;curved=1;" edge="1" parent="1" source="r0mZw5IqI9Jmc-1Zj064-52" target="r0mZw5IqI9Jmc-1Zj064-54">
          <mxGeometry relative="1" as="geometry">
            <mxPoint x="1605" y="860" as="sourcePoint" />
            <mxPoint x="1579" y="930" as="targetPoint" />
          </mxGeometry>
        </mxCell>
        <mxCell id="r0mZw5IqI9Jmc-1Zj064-56" value="BEGIN" style="rounded=1;whiteSpace=wrap;html=1;" vertex="1" parent="1">
          <mxGeometry x="1570" y="1040" width="60" height="40" as="geometry" />
        </mxCell>
        <mxCell id="r0mZw5IqI9Jmc-1Zj064-57" value="op2p" style="edgeStyle=orthogonalEdgeStyle;rounded=0;orthogonalLoop=1;jettySize=auto;html=1;exitX=0.75;exitY=1;exitDx=0;exitDy=0;curved=1;entryX=0.5;entryY=0;entryDx=0;entryDy=0;" edge="1" parent="1" source="r0mZw5IqI9Jmc-1Zj064-52" target="r0mZw5IqI9Jmc-1Zj064-56">
          <mxGeometry relative="1" as="geometry">
            <mxPoint x="1564" y="970" as="sourcePoint" />
            <mxPoint x="1519" y="1050" as="targetPoint" />
          </mxGeometry>
        </mxCell>
        <mxCell id="r0mZw5IqI9Jmc-1Zj064-58" value="SENITEM" style="rounded=1;whiteSpace=wrap;html=1;" vertex="1" parent="1">
          <mxGeometry x="1420" y="1150" width="60" height="40" as="geometry" />
        </mxCell>
        <mxCell id="r0mZw5IqI9Jmc-1Zj064-59" value="PARSEREF" style="rounded=1;whiteSpace=wrap;html=1;" vertex="1" parent="1">
          <mxGeometry x="1380" y="1260" width="60" height="40" as="geometry" />
        </mxCell>
        <mxCell id="r0mZw5IqI9Jmc-1Zj064-60" value="op1p" style="edgeStyle=orthogonalEdgeStyle;rounded=0;orthogonalLoop=1;jettySize=auto;html=1;exitX=0.25;exitY=1;exitDx=0;exitDy=0;curved=1;entryX=0.5;entryY=0;entryDx=0;entryDy=0;" edge="1" parent="1" source="r0mZw5IqI9Jmc-1Zj064-54" target="r0mZw5IqI9Jmc-1Zj064-58">
          <mxGeometry relative="1" as="geometry">
            <mxPoint x="1564" y="970" as="sourcePoint" />
            <mxPoint x="1519" y="1050" as="targetPoint" />
          </mxGeometry>
        </mxCell>
        <mxCell id="r0mZw5IqI9Jmc-1Zj064-61" value="op1p" style="edgeStyle=orthogonalEdgeStyle;rounded=0;orthogonalLoop=1;jettySize=auto;html=1;exitX=0.25;exitY=1;exitDx=0;exitDy=0;curved=1;entryX=0.5;entryY=0;entryDx=0;entryDy=0;" edge="1" parent="1" source="r0mZw5IqI9Jmc-1Zj064-58" target="r0mZw5IqI9Jmc-1Zj064-59">
          <mxGeometry relative="1" as="geometry">
            <mxPoint x="1504" y="1090" as="sourcePoint" />
            <mxPoint x="1460" y="1160" as="targetPoint" />
          </mxGeometry>
        </mxCell>
        <mxCell id="r0mZw5IqI9Jmc-1Zj064-62" value="ASSIGNDLY" style="rounded=1;whiteSpace=wrap;html=1;" vertex="1" parent="1">
          <mxGeometry x="1570" y="1150" width="60" height="40" as="geometry" />
        </mxCell>
        <mxCell id="r0mZw5IqI9Jmc-1Zj064-63" value="op1p" style="edgeStyle=orthogonalEdgeStyle;rounded=0;orthogonalLoop=1;jettySize=auto;html=1;exitX=0.5;exitY=1;exitDx=0;exitDy=0;curved=1;" edge="1" parent="1" source="r0mZw5IqI9Jmc-1Zj064-56" target="r0mZw5IqI9Jmc-1Zj064-62">
          <mxGeometry relative="1" as="geometry">
            <mxPoint x="1504" y="1090" as="sourcePoint" />
            <mxPoint x="1460" y="1160" as="targetPoint" />
          </mxGeometry>
        </mxCell>
        <mxCell id="r0mZw5IqI9Jmc-1Zj064-64" value="PARSEREF" style="rounded=1;whiteSpace=wrap;html=1;" vertex="1" parent="1">
          <mxGeometry x="1525" y="1260" width="60" height="40" as="geometry" />
        </mxCell>
        <mxCell id="r0mZw5IqI9Jmc-1Zj064-65" value="PARSEREF" style="rounded=1;whiteSpace=wrap;html=1;" vertex="1" parent="1">
          <mxGeometry x="1620" y="1260" width="60" height="40" as="geometry" />
        </mxCell>
        <mxCell id="r0mZw5IqI9Jmc-1Zj064-66" value="op1p" style="edgeStyle=orthogonalEdgeStyle;rounded=0;orthogonalLoop=1;jettySize=auto;html=1;exitX=0.25;exitY=1;exitDx=0;exitDy=0;curved=1;entryX=0.5;entryY=0;entryDx=0;entryDy=0;" edge="1" parent="1" source="r0mZw5IqI9Jmc-1Zj064-62" target="r0mZw5IqI9Jmc-1Zj064-64">
          <mxGeometry relative="1" as="geometry">
            <mxPoint x="1639" y="1090" as="sourcePoint" />
            <mxPoint x="1610" y="1160" as="targetPoint" />
          </mxGeometry>
        </mxCell>
        <mxCell id="r0mZw5IqI9Jmc-1Zj064-67" value="op2p" style="edgeStyle=orthogonalEdgeStyle;rounded=0;orthogonalLoop=1;jettySize=auto;html=1;exitX=0.75;exitY=1;exitDx=0;exitDy=0;curved=1;entryX=0.5;entryY=0;entryDx=0;entryDy=0;" edge="1" parent="1" source="r0mZw5IqI9Jmc-1Zj064-62" target="r0mZw5IqI9Jmc-1Zj064-65">
          <mxGeometry relative="1" as="geometry">
            <mxPoint x="1595" y="1200" as="sourcePoint" />
            <mxPoint x="1565" y="1270" as="targetPoint" />
          </mxGeometry>
        </mxCell>
        <mxCell id="r0mZw5IqI9Jmc-1Zj064-68" value="ALWAYS" style="rounded=1;whiteSpace=wrap;html=1;" vertex="1" parent="1">
          <mxGeometry x="1831" y="810" width="60" height="40" as="geometry" />
        </mxCell>
        <mxCell id="r0mZw5IqI9Jmc-1Zj064-69" value="TIMINGCONTROL" style="rounded=1;whiteSpace=wrap;html=1;" vertex="1" parent="1">
          <mxGeometry x="1790" y="920" width="60" height="40" as="geometry" />
        </mxCell>
        <mxCell id="r0mZw5IqI9Jmc-1Zj064-70" value="op2p" style="edgeStyle=orthogonalEdgeStyle;rounded=0;orthogonalLoop=1;jettySize=auto;html=1;exitX=0.25;exitY=1;exitDx=0;exitDy=0;curved=1;entryX=0.5;entryY=0;entryDx=0;entryDy=0;" edge="1" parent="1" source="r0mZw5IqI9Jmc-1Zj064-68" target="r0mZw5IqI9Jmc-1Zj064-69">
          <mxGeometry relative="1" as="geometry">
            <mxPoint x="1676" y="860" as="sourcePoint" />
            <mxPoint x="1661" y="930" as="targetPoint" />
          </mxGeometry>
        </mxCell>
        <mxCell id="r0mZw5IqI9Jmc-1Zj064-71" value="SENTREE" style="rounded=1;whiteSpace=wrap;html=1;" vertex="1" parent="1">
          <mxGeometry x="1750" y="1040" width="60" height="40" as="geometry" />
        </mxCell>
        <mxCell id="r0mZw5IqI9Jmc-1Zj064-72" value="op1p" style="edgeStyle=orthogonalEdgeStyle;rounded=0;orthogonalLoop=1;jettySize=auto;html=1;exitX=0.25;exitY=1;exitDx=0;exitDy=0;curved=1;" edge="1" parent="1" source="r0mZw5IqI9Jmc-1Zj064-69" target="r0mZw5IqI9Jmc-1Zj064-71">
          <mxGeometry relative="1" as="geometry">
            <mxPoint x="1996" y="860" as="sourcePoint" />
            <mxPoint x="1970" y="930" as="targetPoint" />
          </mxGeometry>
        </mxCell>
        <mxCell id="r0mZw5IqI9Jmc-1Zj064-73" value="BEGIN" style="rounded=1;whiteSpace=wrap;html=1;" vertex="1" parent="1">
          <mxGeometry x="1990" y="1040" width="60" height="40" as="geometry" />
        </mxCell>
        <mxCell id="r0mZw5IqI9Jmc-1Zj064-74" value="op2p" style="edgeStyle=orthogonalEdgeStyle;rounded=0;orthogonalLoop=1;jettySize=auto;html=1;exitX=0.75;exitY=1;exitDx=0;exitDy=0;curved=1;entryX=0.5;entryY=0;entryDx=0;entryDy=0;" edge="1" parent="1" source="r0mZw5IqI9Jmc-1Zj064-69" target="r0mZw5IqI9Jmc-1Zj064-73">
          <mxGeometry relative="1" as="geometry">
            <mxPoint x="1955" y="970" as="sourcePoint" />
            <mxPoint x="1910" y="1050" as="targetPoint" />
          </mxGeometry>
        </mxCell>
        <mxCell id="r0mZw5IqI9Jmc-1Zj064-89" style="edgeStyle=orthogonalEdgeStyle;rounded=0;orthogonalLoop=1;jettySize=auto;html=1;exitX=1;exitY=0.5;exitDx=0;exitDy=0;entryX=0;entryY=0.5;entryDx=0;entryDy=0;" edge="1" parent="1" source="r0mZw5IqI9Jmc-1Zj064-75" target="r0mZw5IqI9Jmc-1Zj064-86">
          <mxGeometry relative="1" as="geometry" />
        </mxCell>
        <mxCell id="r0mZw5IqI9Jmc-1Zj064-75" value="SENITEM" style="rounded=1;whiteSpace=wrap;html=1;" vertex="1" parent="1">
          <mxGeometry x="1711" y="1150" width="60" height="40" as="geometry" />
        </mxCell>
        <mxCell id="r0mZw5IqI9Jmc-1Zj064-76" value="PARSEREF" style="rounded=1;whiteSpace=wrap;html=1;" vertex="1" parent="1">
          <mxGeometry x="1700" y="1260" width="60" height="40" as="geometry" />
        </mxCell>
        <mxCell id="r0mZw5IqI9Jmc-1Zj064-77" value="op1p" style="edgeStyle=orthogonalEdgeStyle;rounded=0;orthogonalLoop=1;jettySize=auto;html=1;exitX=0.25;exitY=1;exitDx=0;exitDy=0;curved=1;entryX=0.5;entryY=0;entryDx=0;entryDy=0;" edge="1" parent="1" source="r0mZw5IqI9Jmc-1Zj064-71" target="r0mZw5IqI9Jmc-1Zj064-75">
          <mxGeometry relative="1" as="geometry">
            <mxPoint x="1884" y="970" as="sourcePoint" />
            <mxPoint x="1839" y="1050" as="targetPoint" />
          </mxGeometry>
        </mxCell>
        <mxCell id="r0mZw5IqI9Jmc-1Zj064-78" value="op1p" style="edgeStyle=orthogonalEdgeStyle;rounded=0;orthogonalLoop=1;jettySize=auto;html=1;exitX=0.25;exitY=1;exitDx=0;exitDy=0;curved=1;entryX=0.5;entryY=0;entryDx=0;entryDy=0;" edge="1" parent="1" source="r0mZw5IqI9Jmc-1Zj064-75" target="r0mZw5IqI9Jmc-1Zj064-76">
          <mxGeometry relative="1" as="geometry">
            <mxPoint x="1824" y="1090" as="sourcePoint" />
            <mxPoint x="1780" y="1160" as="targetPoint" />
          </mxGeometry>
        </mxCell>
        <mxCell id="r0mZw5IqI9Jmc-1Zj064-79" value="IF" style="rounded=1;whiteSpace=wrap;html=1;" vertex="1" parent="1">
          <mxGeometry x="1961" y="1150" width="60" height="40" as="geometry" />
        </mxCell>
        <mxCell id="r0mZw5IqI9Jmc-1Zj064-80" value="op1p" style="edgeStyle=orthogonalEdgeStyle;rounded=0;orthogonalLoop=1;jettySize=auto;html=1;exitX=0.5;exitY=1;exitDx=0;exitDy=0;curved=1;" edge="1" parent="1" source="r0mZw5IqI9Jmc-1Zj064-73" target="r0mZw5IqI9Jmc-1Zj064-79">
          <mxGeometry relative="1" as="geometry">
            <mxPoint x="1895" y="1090" as="sourcePoint" />
            <mxPoint x="1851" y="1160" as="targetPoint" />
          </mxGeometry>
        </mxCell>
        <mxCell id="r0mZw5IqI9Jmc-1Zj064-81" value="EQ" style="rounded=1;whiteSpace=wrap;html=1;" vertex="1" parent="1">
          <mxGeometry x="1916" y="1260" width="60" height="40" as="geometry" />
        </mxCell>
        <mxCell id="r0mZw5IqI9Jmc-1Zj064-82" value="ASSIGN" style="rounded=1;whiteSpace=wrap;html=1;" vertex="1" parent="1">
          <mxGeometry x="2011" y="1260" width="60" height="40" as="geometry" />
        </mxCell>
        <mxCell id="r0mZw5IqI9Jmc-1Zj064-83" value="op1p" style="edgeStyle=orthogonalEdgeStyle;rounded=0;orthogonalLoop=1;jettySize=auto;html=1;exitX=0.25;exitY=1;exitDx=0;exitDy=0;curved=1;entryX=0.5;entryY=0;entryDx=0;entryDy=0;" edge="1" parent="1" source="r0mZw5IqI9Jmc-1Zj064-79" target="r0mZw5IqI9Jmc-1Zj064-81">
          <mxGeometry relative="1" as="geometry">
            <mxPoint x="2030" y="1090" as="sourcePoint" />
            <mxPoint x="2001" y="1160" as="targetPoint" />
          </mxGeometry>
        </mxCell>
        <mxCell id="r0mZw5IqI9Jmc-1Zj064-84" value="op2p" style="edgeStyle=orthogonalEdgeStyle;rounded=0;orthogonalLoop=1;jettySize=auto;html=1;exitX=0.75;exitY=1;exitDx=0;exitDy=0;curved=1;entryX=0.5;entryY=0;entryDx=0;entryDy=0;" edge="1" parent="1" source="r0mZw5IqI9Jmc-1Zj064-79" target="r0mZw5IqI9Jmc-1Zj064-82">
          <mxGeometry relative="1" as="geometry">
            <mxPoint x="1986" y="1200" as="sourcePoint" />
            <mxPoint x="1956" y="1270" as="targetPoint" />
          </mxGeometry>
        </mxCell>
        <mxCell id="r0mZw5IqI9Jmc-1Zj064-86" value="SENITEM" style="rounded=1;whiteSpace=wrap;html=1;" vertex="1" parent="1">
          <mxGeometry x="1801.5" y="1150" width="60" height="40" as="geometry" />
        </mxCell>
        <mxCell id="r0mZw5IqI9Jmc-1Zj064-87" value="PARSEREF" style="rounded=1;whiteSpace=wrap;html=1;" vertex="1" parent="1">
          <mxGeometry x="1790.5" y="1260" width="60" height="40" as="geometry" />
        </mxCell>
        <mxCell id="r0mZw5IqI9Jmc-1Zj064-88" value="op1p" style="edgeStyle=orthogonalEdgeStyle;rounded=0;orthogonalLoop=1;jettySize=auto;html=1;exitX=0.25;exitY=1;exitDx=0;exitDy=0;curved=1;entryX=0.5;entryY=0;entryDx=0;entryDy=0;" edge="1" parent="1" source="r0mZw5IqI9Jmc-1Zj064-86" target="r0mZw5IqI9Jmc-1Zj064-87">
          <mxGeometry relative="1" as="geometry">
            <mxPoint x="1914.5" y="1090" as="sourcePoint" />
            <mxPoint x="1870.5" y="1160" as="targetPoint" />
          </mxGeometry>
        </mxCell>
        <mxCell id="r0mZw5IqI9Jmc-1Zj064-90" value="PARSEREF" style="rounded=1;whiteSpace=wrap;html=1;" vertex="1" parent="1">
          <mxGeometry x="1870" y="1360" width="60" height="40" as="geometry" />
        </mxCell>
        <mxCell id="r0mZw5IqI9Jmc-1Zj064-91" value="op1p" style="edgeStyle=orthogonalEdgeStyle;rounded=0;orthogonalLoop=1;jettySize=auto;html=1;exitX=0.25;exitY=1;exitDx=0;exitDy=0;curved=1;entryX=0.5;entryY=0;entryDx=0;entryDy=0;" edge="1" parent="1" source="r0mZw5IqI9Jmc-1Zj064-81" target="r0mZw5IqI9Jmc-1Zj064-90">
          <mxGeometry relative="1" as="geometry">
            <mxPoint x="1986" y="1200" as="sourcePoint" />
            <mxPoint x="1956" y="1270" as="targetPoint" />
          </mxGeometry>
        </mxCell>
        <mxCell id="r0mZw5IqI9Jmc-1Zj064-94" value="CONST" style="rounded=1;whiteSpace=wrap;html=1;" vertex="1" parent="1">
          <mxGeometry x="1961" y="1360" width="60" height="40" as="geometry" />
        </mxCell>
        <mxCell id="r0mZw5IqI9Jmc-1Zj064-95" value="op2p" style="edgeStyle=orthogonalEdgeStyle;rounded=0;orthogonalLoop=1;jettySize=auto;html=1;exitX=0.75;exitY=1;exitDx=0;exitDy=0;curved=1;" edge="1" parent="1" source="r0mZw5IqI9Jmc-1Zj064-81" target="r0mZw5IqI9Jmc-1Zj064-94">
          <mxGeometry relative="1" as="geometry">
            <mxPoint x="1941" y="1310" as="sourcePoint" />
            <mxPoint x="1910" y="1370" as="targetPoint" />
          </mxGeometry>
        </mxCell>
      </root>
    </mxGraphModel>
  </diagram>
</mxfile>
